STARTFONT 2.1
FONT -B&H-Lucida Sans Typewriter-Bold-R-Normal-Sans-12-120-72-72-M-70-ISO8859-1
SIZE 12 72 72
FONTBOUNDINGBOX 7 13 0 -2

STARTPROPERTIES 22
FONTNAME_REGISTRY "-"
FOUNDRY "B&H"
FAMILY_NAME "Lucida Sans Typewriter"
WEIGHT_NAME "Bold"
SLANT "R"
SETWIDTH_NAME "Normal"
ADD_STYLE_NAME "Sans"
PIXEL_SIZE 12
POINT_SIZE 120
RESOLUTION_X 72
RESOLUTION_Y 72
SPACING "M"
CHARSET_REGISTRY "ISO8859"
CHARSET_ENCODING "1"
FULL_NAME "LucidaSans-TypewriterBold"
AVERAGE_WIDTH 70
WEIGHT 10
X_HEIGHT 7
QUAD_WIDTH 7
DEFAULT_CHAR 32
FONT_DESCENT 2
FONT_ASCENT 11
ENDPROPERTIES

CHARS 190

STARTCHAR space
ENCODING 32
SWIDTH 602 0
DWIDTH 7 0
BBX 7 13 0 -2
BITMAP
00
00
00
00
00
00
00
00
00
00
00
00
00
ENDCHAR

STARTCHAR exclam
ENCODING 33
SWIDTH 602 0
DWIDTH 7 0
BBX 7 13 0 -2
BITMAP
00
00
18
18
18
18
18
08
00
18
18
00
00
ENDCHAR

STARTCHAR quotedbl
ENCODING 34
SWIDTH 602 0
DWIDTH 7 0
BBX 7 13 0 -2
BITMAP
00
36
36
24
24
00
00
00
00
00
00
00
00
ENDCHAR

STARTCHAR numbersign
ENCODING 35
SWIDTH 602 0
DWIDTH 7 0
BBX 7 13 0 -2
BITMAP
00
00
6C
6C
FE
6C
6C
FE
6C
6C
6C
00
00
ENDCHAR

STARTCHAR dollar
ENCODING 36
SWIDTH 602 0
DWIDTH 7 0
BBX 7 13 0 -2
BITMAP
08
08
3C
62
60
70
3C
0E
06
46
3C
10
10
ENDCHAR

STARTCHAR percent
ENCODING 37
SWIDTH 602 0
DWIDTH 7 0
BBX 7 13 0 -2
BITMAP
00
00
62
B6
B4
68
10
2C
56
D6
8C
00
00
ENDCHAR

STARTCHAR ampersand
ENCODING 38
SWIDTH 602 0
DWIDTH 7 0
BBX 7 13 0 -2
BITMAP
00
00
38
6C
6C
68
32
7A
6C
66
3A
00
00
ENDCHAR

STARTCHAR quoteright
ENCODING 39
SWIDTH 602 0
DWIDTH 7 0
BBX 7 13 0 -2
BITMAP
00
18
18
08
10
00
00
00
00
00
00
00
00
ENDCHAR

STARTCHAR parenleft
ENCODING 40
SWIDTH 602 0
DWIDTH 7 0
BBX 7 13 0 -2
BITMAP
00
0C
18
30
30
30
30
30
30
30
18
0C
00
ENDCHAR

STARTCHAR parenright
ENCODING 41
SWIDTH 602 0
DWIDTH 7 0
BBX 7 13 0 -2
BITMAP
00
60
30
18
18
18
18
18
18
18
30
60
00
ENDCHAR

STARTCHAR asterisk
ENCODING 42
SWIDTH 602 0
DWIDTH 7 0
BBX 7 13 0 -2
BITMAP
00
00
10
54
38
54
10
00
00
00
00
00
00
ENDCHAR

STARTCHAR plus
ENCODING 43
SWIDTH 602 0
DWIDTH 7 0
BBX 7 13 0 -2
BITMAP
00
00
00
10
10
10
FE
10
10
10
00
00
00
ENDCHAR

STARTCHAR comma
ENCODING 44
SWIDTH 602 0
DWIDTH 7 0
BBX 7 13 0 -2
BITMAP
00
00
00
00
00
00
00
00
00
18
18
08
10
ENDCHAR

STARTCHAR minus
ENCODING 45
SWIDTH 602 0
DWIDTH 7 0
BBX 7 13 0 -2
BITMAP
00
00
00
00
00
00
7E
00
00
00
00
00
00
ENDCHAR

STARTCHAR period
ENCODING 46
SWIDTH 602 0
DWIDTH 7 0
BBX 7 13 0 -2
BITMAP
00
00
00
00
00
00
00
00
00
18
18
00
00
ENDCHAR

STARTCHAR slash
ENCODING 47
SWIDTH 602 0
DWIDTH 7 0
BBX 7 13 0 -2
BITMAP
00
06
06
0C
0C
18
18
30
60
60
C0
C0
00
ENDCHAR

STARTCHAR zero
ENCODING 48
SWIDTH 602 0
DWIDTH 7 0
BBX 7 13 0 -2
BITMAP
00
00
3C
66
66
66
66
66
66
66
3C
00
00
ENDCHAR

STARTCHAR one
ENCODING 49
SWIDTH 602 0
DWIDTH 7 0
BBX 7 13 0 -2
BITMAP
00
00
18
78
18
18
18
18
18
18
18
00
00
ENDCHAR

STARTCHAR two
ENCODING 50
SWIDTH 602 0
DWIDTH 7 0
BBX 7 13 0 -2
BITMAP
00
00
3C
66
06
0E
1C
30
60
7E
7E
00
00
ENDCHAR

STARTCHAR three
ENCODING 51
SWIDTH 602 0
DWIDTH 7 0
BBX 7 13 0 -2
BITMAP
00
00
3C
66
06
06
3C
06
06
66
3C
00
00
ENDCHAR

STARTCHAR four
ENCODING 52
SWIDTH 602 0
DWIDTH 7 0
BBX 7 13 0 -2
BITMAP
00
00
0C
1C
2C
2C
4C
7E
7E
0C
0C
00
00
ENDCHAR

STARTCHAR five
ENCODING 53
SWIDTH 602 0
DWIDTH 7 0
BBX 7 13 0 -2
BITMAP
00
00
3E
3E
20
20
3C
06
06
66
3C
00
00
ENDCHAR

STARTCHAR six
ENCODING 54
SWIDTH 602 0
DWIDTH 7 0
BBX 7 13 0 -2
BITMAP
00
00
3C
66
60
60
7C
66
66
66
3C
00
00
ENDCHAR

STARTCHAR seven
ENCODING 55
SWIDTH 602 0
DWIDTH 7 0
BBX 7 13 0 -2
BITMAP
00
00
7E
7E
06
0C
18
18
30
30
30
00
00
ENDCHAR

STARTCHAR eight
ENCODING 56
SWIDTH 602 0
DWIDTH 7 0
BBX 7 13 0 -2
BITMAP
00
00
3C
66
66
76
3C
6E
66
66
3C
00
00
ENDCHAR

STARTCHAR nine
ENCODING 57
SWIDTH 602 0
DWIDTH 7 0
BBX 7 13 0 -2
BITMAP
00
00
3C
66
66
66
3E
06
06
66
3C
00
00
ENDCHAR

STARTCHAR colon
ENCODING 58
SWIDTH 602 0
DWIDTH 7 0
BBX 7 13 0 -2
BITMAP
00
00
00
00
18
18
00
00
00
18
18
00
00
ENDCHAR

STARTCHAR semicolon
ENCODING 59
SWIDTH 602 0
DWIDTH 7 0
BBX 7 13 0 -2
BITMAP
00
00
00
00
18
18
00
00
00
18
18
08
10
ENDCHAR

STARTCHAR less
ENCODING 60
SWIDTH 602 0
DWIDTH 7 0
BBX 7 13 0 -2
BITMAP
00
00
00
0C
38
60
C0
60
38
0C
00
00
00
ENDCHAR

STARTCHAR equal
ENCODING 61
SWIDTH 602 0
DWIDTH 7 0
BBX 7 13 0 -2
BITMAP
00
00
00
00
00
7E
00
7E
00
00
00
00
00
ENDCHAR

STARTCHAR greater
ENCODING 62
SWIDTH 602 0
DWIDTH 7 0
BBX 7 13 0 -2
BITMAP
00
00
00
60
38
0C
06
0C
38
60
00
00
00
ENDCHAR

STARTCHAR question
ENCODING 63
SWIDTH 602 0
DWIDTH 7 0
BBX 7 13 0 -2
BITMAP
00
00
1C
26
06
0C
18
18
00
18
18
00
00
ENDCHAR

STARTCHAR at
ENCODING 64
SWIDTH 602 0
DWIDTH 7 0
BBX 7 13 0 -2
BITMAP
00
00
7C
C6
9E
B6
B6
B6
9A
C0
7C
00
00
ENDCHAR

STARTCHAR A
ENCODING 65
SWIDTH 602 0
DWIDTH 7 0
BBX 7 13 0 -2
BITMAP
00
00
18
18
2C
2C
2C
7E
46
46
46
00
00
ENDCHAR

STARTCHAR B
ENCODING 66
SWIDTH 602 0
DWIDTH 7 0
BBX 7 13 0 -2
BITMAP
00
00
7C
66
66
64
78
64
66
66
7C
00
00
ENDCHAR

STARTCHAR C
ENCODING 67
SWIDTH 602 0
DWIDTH 7 0
BBX 7 13 0 -2
BITMAP
00
00
1C
36
60
60
60
60
60
32
1C
00
00
ENDCHAR

STARTCHAR D
ENCODING 68
SWIDTH 602 0
DWIDTH 7 0
BBX 7 13 0 -2
BITMAP
00
00
78
6C
66
66
66
66
66
6C
78
00
00
ENDCHAR

STARTCHAR E
ENCODING 69
SWIDTH 602 0
DWIDTH 7 0
BBX 7 13 0 -2
BITMAP
00
00
3E
30
30
30
3C
30
30
30
3E
00
00
ENDCHAR

STARTCHAR F
ENCODING 70
SWIDTH 602 0
DWIDTH 7 0
BBX 7 13 0 -2
BITMAP
00
00
3E
30
30
30
3C
30
30
30
30
00
00
ENDCHAR

STARTCHAR G
ENCODING 71
SWIDTH 602 0
DWIDTH 7 0
BBX 7 13 0 -2
BITMAP
00
00
1C
36
60
60
60
66
66
36
1E
00
00
ENDCHAR

STARTCHAR H
ENCODING 72
SWIDTH 602 0
DWIDTH 7 0
BBX 7 13 0 -2
BITMAP
00
00
66
66
66
66
7E
66
66
66
66
00
00
ENDCHAR

STARTCHAR I
ENCODING 73
SWIDTH 602 0
DWIDTH 7 0
BBX 7 13 0 -2
BITMAP
00
00
7E
18
18
18
18
18
18
18
7E
00
00
ENDCHAR

STARTCHAR J
ENCODING 74
SWIDTH 602 0
DWIDTH 7 0
BBX 7 13 0 -2
BITMAP
00
00
7C
0C
0C
0C
0C
0C
0C
0C
78
00
00
ENDCHAR

STARTCHAR K
ENCODING 75
SWIDTH 602 0
DWIDTH 7 0
BBX 7 13 0 -2
BITMAP
00
00
62
66
64
68
70
78
6C
66
66
00
00
ENDCHAR

STARTCHAR L
ENCODING 76
SWIDTH 602 0
DWIDTH 7 0
BBX 7 13 0 -2
BITMAP
00
00
30
30
30
30
30
30
30
30
3E
00
00
ENDCHAR

STARTCHAR M
ENCODING 77
SWIDTH 602 0
DWIDTH 7 0
BBX 7 13 0 -2
BITMAP
00
00
66
66
7E
7E
56
56
56
56
46
00
00
ENDCHAR

STARTCHAR N
ENCODING 78
SWIDTH 602 0
DWIDTH 7 0
BBX 7 13 0 -2
BITMAP
00
00
62
62
72
7A
5A
5E
4E
46
46
00
00
ENDCHAR

STARTCHAR O
ENCODING 79
SWIDTH 602 0
DWIDTH 7 0
BBX 7 13 0 -2
BITMAP
00
00
3C
24
66
66
66
66
66
24
3C
00
00
ENDCHAR

STARTCHAR P
ENCODING 80
SWIDTH 602 0
DWIDTH 7 0
BBX 7 13 0 -2
BITMAP
00
00
7C
66
66
66
64
78
60
60
60
00
00
ENDCHAR

STARTCHAR Q
ENCODING 81
SWIDTH 602 0
DWIDTH 7 0
BBX 7 13 0 -2
BITMAP
00
00
3C
24
66
66
66
66
66
24
3C
0C
06
ENDCHAR

STARTCHAR R
ENCODING 82
SWIDTH 602 0
DWIDTH 7 0
BBX 7 13 0 -2
BITMAP
00
00
7C
66
66
64
78
6C
6C
66
66
00
00
ENDCHAR

STARTCHAR S
ENCODING 83
SWIDTH 602 0
DWIDTH 7 0
BBX 7 13 0 -2
BITMAP
00
00
3C
66
60
70
3C
0E
06
66
3C
00
00
ENDCHAR

STARTCHAR T
ENCODING 84
SWIDTH 602 0
DWIDTH 7 0
BBX 7 13 0 -2
BITMAP
00
00
7E
18
18
18
18
18
18
18
18
00
00
ENDCHAR

STARTCHAR U
ENCODING 85
SWIDTH 602 0
DWIDTH 7 0
BBX 7 13 0 -2
BITMAP
00
00
62
62
62
62
62
62
62
34
18
00
00
ENDCHAR

STARTCHAR V
ENCODING 86
SWIDTH 602 0
DWIDTH 7 0
BBX 7 13 0 -2
BITMAP
00
00
66
66
66
64
34
34
38
18
18
00
00
ENDCHAR

STARTCHAR W
ENCODING 87
SWIDTH 602 0
DWIDTH 7 0
BBX 7 13 0 -2
BITMAP
00
00
62
62
6A
6A
6A
3E
34
34
34
00
00
ENDCHAR

STARTCHAR X
ENCODING 88
SWIDTH 602 0
DWIDTH 7 0
BBX 7 13 0 -2
BITMAP
00
00
66
66
34
38
18
1C
2C
66
66
00
00
ENDCHAR

STARTCHAR Y
ENCODING 89
SWIDTH 602 0
DWIDTH 7 0
BBX 7 13 0 -2
BITMAP
00
00
66
66
66
24
3C
18
18
18
18
00
00
ENDCHAR

STARTCHAR Z
ENCODING 90
SWIDTH 602 0
DWIDTH 7 0
BBX 7 13 0 -2
BITMAP
00
00
7E
06
0E
1C
18
38
70
60
7E
00
00
ENDCHAR

STARTCHAR bracketleft
ENCODING 91
SWIDTH 602 0
DWIDTH 7 0
BBX 7 13 0 -2
BITMAP
00
3C
30
30
30
30
30
30
30
30
30
3C
00
ENDCHAR

STARTCHAR backslash
ENCODING 92
SWIDTH 602 0
DWIDTH 7 0
BBX 7 13 0 -2
BITMAP
00
C0
C0
60
60
30
30
18
0C
0C
06
06
00
ENDCHAR

STARTCHAR bracketright
ENCODING 93
SWIDTH 602 0
DWIDTH 7 0
BBX 7 13 0 -2
BITMAP
00
3C
0C
0C
0C
0C
0C
0C
0C
0C
0C
3C
00
ENDCHAR

STARTCHAR asciicircum
ENCODING 94
SWIDTH 602 0
DWIDTH 7 0
BBX 7 13 0 -2
BITMAP
00
00
10
38
28
6C
44
C6
82
00
00
00
00
ENDCHAR

STARTCHAR underscore
ENCODING 95
SWIDTH 602 0
DWIDTH 7 0
BBX 7 13 0 -2
BITMAP
00
00
00
00
00
00
00
00
00
00
00
FE
00
ENDCHAR

STARTCHAR quoteleft
ENCODING 96
SWIDTH 602 0
DWIDTH 7 0
BBX 7 13 0 -2
BITMAP
00
08
10
18
18
00
00
00
00
00
00
00
00
ENDCHAR

STARTCHAR a
ENCODING 97
SWIDTH 602 0
DWIDTH 7 0
BBX 7 13 0 -2
BITMAP
00
00
00
00
3C
66
06
3E
66
66
3A
00
00
ENDCHAR

STARTCHAR b
ENCODING 98
SWIDTH 602 0
DWIDTH 7 0
BBX 7 13 0 -2
BITMAP
00
60
60
60
6C
76
66
66
66
66
7C
00
00
ENDCHAR

STARTCHAR c
ENCODING 99
SWIDTH 602 0
DWIDTH 7 0
BBX 7 13 0 -2
BITMAP
00
00
00
00
3C
66
60
60
60
62
3C
00
00
ENDCHAR

STARTCHAR d
ENCODING 100
SWIDTH 602 0
DWIDTH 7 0
BBX 7 13 0 -2
BITMAP
00
06
06
06
3E
66
66
66
66
6E
36
00
00
ENDCHAR

STARTCHAR e
ENCODING 101
SWIDTH 602 0
DWIDTH 7 0
BBX 7 13 0 -2
BITMAP
00
00
00
00
3C
66
66
7E
60
62
3C
00
00
ENDCHAR

STARTCHAR f
ENCODING 102
SWIDTH 602 0
DWIDTH 7 0
BBX 7 13 0 -2
BITMAP
00
1E
30
30
7E
30
30
30
30
30
30
00
00
ENDCHAR

STARTCHAR g
ENCODING 103
SWIDTH 602 0
DWIDTH 7 0
BBX 7 13 0 -2
BITMAP
00
00
00
00
3E
66
66
66
6E
36
06
66
3C
ENDCHAR

STARTCHAR h
ENCODING 104
SWIDTH 602 0
DWIDTH 7 0
BBX 7 13 0 -2
BITMAP
00
60
60
60
6C
76
66
66
66
66
66
00
00
ENDCHAR

STARTCHAR i
ENCODING 105
SWIDTH 602 0
DWIDTH 7 0
BBX 7 13 0 -2
BITMAP
00
18
18
00
78
18
18
18
18
18
18
00
00
ENDCHAR

STARTCHAR j
ENCODING 106
SWIDTH 602 0
DWIDTH 7 0
BBX 7 13 0 -2
BITMAP
00
18
18
00
78
18
18
18
18
18
18
18
70
ENDCHAR

STARTCHAR k
ENCODING 107
SWIDTH 602 0
DWIDTH 7 0
BBX 7 13 0 -2
BITMAP
00
60
60
60
66
64
68
78
6C
66
66
00
00
ENDCHAR

STARTCHAR l
ENCODING 108
SWIDTH 602 0
DWIDTH 7 0
BBX 7 13 0 -2
BITMAP
00
78
18
18
18
18
18
18
18
18
18
00
00
ENDCHAR

STARTCHAR m
ENCODING 109
SWIDTH 602 0
DWIDTH 7 0
BBX 7 13 0 -2
BITMAP
00
00
00
00
7C
6A
6A
6A
6A
6A
6A
00
00
ENDCHAR

STARTCHAR n
ENCODING 110
SWIDTH 602 0
DWIDTH 7 0
BBX 7 13 0 -2
BITMAP
00
00
00
00
6C
76
66
66
66
66
66
00
00
ENDCHAR

STARTCHAR o
ENCODING 111
SWIDTH 602 0
DWIDTH 7 0
BBX 7 13 0 -2
BITMAP
00
00
00
00
3C
66
66
66
66
66
3C
00
00
ENDCHAR

STARTCHAR p
ENCODING 112
SWIDTH 602 0
DWIDTH 7 0
BBX 7 13 0 -2
BITMAP
00
00
00
00
6C
76
66
66
66
66
7C
60
60
ENDCHAR

STARTCHAR q
ENCODING 113
SWIDTH 602 0
DWIDTH 7 0
BBX 7 13 0 -2
BITMAP
00
00
00
00
3E
66
66
66
66
6E
36
06
06
ENDCHAR

STARTCHAR r
ENCODING 114
SWIDTH 602 0
DWIDTH 7 0
BBX 7 13 0 -2
BITMAP
00
00
00
00
36
36
38
30
30
30
30
00
00
ENDCHAR

STARTCHAR s
ENCODING 115
SWIDTH 602 0
DWIDTH 7 0
BBX 7 13 0 -2
BITMAP
00
00
00
00
3E
60
70
3C
0E
06
7C
00
00
ENDCHAR

STARTCHAR t
ENCODING 116
SWIDTH 602 0
DWIDTH 7 0
BBX 7 13 0 -2
BITMAP
00
00
10
30
7E
30
30
30
30
30
1E
00
00
ENDCHAR

STARTCHAR u
ENCODING 117
SWIDTH 602 0
DWIDTH 7 0
BBX 7 13 0 -2
BITMAP
00
00
00
00
66
66
66
66
66
6E
36
00
00
ENDCHAR

STARTCHAR v
ENCODING 118
SWIDTH 602 0
DWIDTH 7 0
BBX 7 13 0 -2
BITMAP
00
00
00
00
66
66
66
34
34
18
18
00
00
ENDCHAR

STARTCHAR w
ENCODING 119
SWIDTH 602 0
DWIDTH 7 0
BBX 7 13 0 -2
BITMAP
00
00
00
00
62
6A
6A
6A
34
34
34
00
00
ENDCHAR

STARTCHAR x
ENCODING 120
SWIDTH 602 0
DWIDTH 7 0
BBX 7 13 0 -2
BITMAP
00
00
00
00
66
66
34
18
2C
66
66
00
00
ENDCHAR

STARTCHAR y
ENCODING 121
SWIDTH 602 0
DWIDTH 7 0
BBX 7 13 0 -2
BITMAP
00
00
00
00
66
66
66
34
34
18
18
10
30
ENDCHAR

STARTCHAR z
ENCODING 122
SWIDTH 602 0
DWIDTH 7 0
BBX 7 13 0 -2
BITMAP
00
00
00
00
7E
0E
1C
38
70
60
7E
00
00
ENDCHAR

STARTCHAR braceleft
ENCODING 123
SWIDTH 602 0
DWIDTH 7 0
BBX 7 13 0 -2
BITMAP
00
1C
30
30
18
08
30
08
18
30
30
1C
00
ENDCHAR

STARTCHAR bar
ENCODING 124
SWIDTH 602 0
DWIDTH 7 0
BBX 7 13 0 -2
BITMAP
00
18
18
18
18
18
18
18
18
18
18
18
00
ENDCHAR

STARTCHAR braceright
ENCODING 125
SWIDTH 602 0
DWIDTH 7 0
BBX 7 13 0 -2
BITMAP
00
38
0C
0C
18
10
0C
10
18
0C
0C
38
00
ENDCHAR

STARTCHAR asciitilde
ENCODING 126
SWIDTH 602 0
DWIDTH 7 0
BBX 7 13 0 -2
BITMAP
00
00
00
00
00
32
5A
4C
00
00
00
00
00
ENDCHAR

STARTCHAR exclamdown
ENCODING 161
SWIDTH 602 0
DWIDTH 7 0
BBX 7 13 0 -2
BITMAP
00
00
00
00
18
18
00
10
18
18
18
18
18
ENDCHAR

STARTCHAR cent
ENCODING 162
SWIDTH 602 0
DWIDTH 7 0
BBX 7 13 0 -2
BITMAP
00
08
08
3C
66
60
60
60
66
3C
08
08
00
ENDCHAR

STARTCHAR sterling
ENCODING 163
SWIDTH 602 0
DWIDTH 7 0
BBX 7 13 0 -2
BITMAP
00
00
3C
62
60
60
F8
60
60
60
FE
00
00
ENDCHAR

STARTCHAR currency
ENCODING 164
SWIDTH 602 0
DWIDTH 7 0
BBX 7 13 0 -2
BITMAP
00
00
82
C6
7C
4C
4C
4C
7C
C6
82
00
00
ENDCHAR

STARTCHAR yen
ENCODING 165
SWIDTH 602 0
DWIDTH 7 0
BBX 7 13 0 -2
BITMAP
00
00
62
62
66
34
7E
18
7E
18
18
00
00
ENDCHAR

STARTCHAR brokenbar
ENCODING 166
SWIDTH 602 0
DWIDTH 7 0
BBX 7 13 0 -2
BITMAP
00
18
18
18
18
00
00
00
18
18
18
18
00
ENDCHAR

STARTCHAR section
ENCODING 167
SWIDTH 602 0
DWIDTH 7 0
BBX 7 13 0 -2
BITMAP
00
00
3C
66
70
3C
46
62
3C
0E
66
3C
00
ENDCHAR

STARTCHAR dieresis
ENCODING 168
SWIDTH 602 0
DWIDTH 7 0
BBX 7 13 0 -2
BITMAP
00
24
24
00
00
00
00
00
00
00
00
00
00
ENDCHAR

STARTCHAR copyright
ENCODING 169
SWIDTH 602 0
DWIDTH 7 0
BBX 7 13 0 -2
BITMAP
00
00
38
44
9A
A2
A2
A2
9A
44
38
00
00
ENDCHAR

STARTCHAR ordfeminine
ENCODING 170
SWIDTH 602 0
DWIDTH 7 0
BBX 7 13 0 -2
BITMAP
00
00
38
0C
3C
6C
6C
36
00
00
00
00
00
ENDCHAR

STARTCHAR guillemotleft
ENCODING 171
SWIDTH 602 0
DWIDTH 7 0
BBX 7 13 0 -2
BITMAP
00
00
00
00
00
36
6C
D8
6C
36
00
00
00
ENDCHAR

STARTCHAR logicalnot
ENCODING 172
SWIDTH 602 0
DWIDTH 7 0
BBX 7 13 0 -2
BITMAP
00
00
00
00
00
00
7E
02
02
02
00
00
00
ENDCHAR

STARTCHAR hyphen
ENCODING 173
SWIDTH 602 0
DWIDTH 7 0
BBX 7 13 0 -2
BITMAP
00
00
00
00
00
00
38
00
00
00
00
00
00
ENDCHAR

STARTCHAR registered
ENCODING 174
SWIDTH 602 0
DWIDTH 7 0
BBX 7 13 0 -2
BITMAP
00
00
38
44
BA
B2
AA
44
38
00
00
00
00
ENDCHAR

STARTCHAR macron
ENCODING 175
SWIDTH 602 0
DWIDTH 7 0
BBX 7 13 0 -2
BITMAP
00
00
3C
00
00
00
00
00
00
00
00
00
00
ENDCHAR

STARTCHAR degree
ENCODING 176
SWIDTH 602 0
DWIDTH 7 0
BBX 7 13 0 -2
BITMAP
00
00
18
34
34
18
00
00
00
00
00
00
00
ENDCHAR

STARTCHAR plusminus
ENCODING 177
SWIDTH 602 0
DWIDTH 7 0
BBX 7 13 0 -2
BITMAP
00
00
00
10
10
FE
10
10
00
FE
00
00
00
ENDCHAR

STARTCHAR twosuperior
ENCODING 178
SWIDTH 602 0
DWIDTH 7 0
BBX 7 13 0 -2
BITMAP
00
00
78
0C
0C
38
60
7C
00
00
00
00
00
ENDCHAR

STARTCHAR threesuperior
ENCODING 179
SWIDTH 602 0
DWIDTH 7 0
BBX 7 13 0 -2
BITMAP
00
00
78
0C
38
0C
0C
78
00
00
00
00
00
ENDCHAR

STARTCHAR acute
ENCODING 180
SWIDTH 602 0
DWIDTH 7 0
BBX 7 13 0 -2
BITMAP
00
0C
18
00
00
00
00
00
00
00
00
00
00
ENDCHAR

STARTCHAR mu
ENCODING 181
SWIDTH 602 0
DWIDTH 7 0
BBX 7 13 0 -2
BITMAP
00
00
00
00
66
66
66
66
66
6E
76
60
60
ENDCHAR

STARTCHAR paragraph
ENCODING 182
SWIDTH 602 0
DWIDTH 7 0
BBX 7 13 0 -2
BITMAP
00
00
7C
F4
F4
F4
74
14
14
14
14
14
00
ENDCHAR

STARTCHAR periodcentered
ENCODING 183
SWIDTH 602 0
DWIDTH 7 0
BBX 7 13 0 -2
BITMAP
00
00
00
00
00
00
18
18
00
00
00
00
00
ENDCHAR

STARTCHAR cedilla
ENCODING 184
SWIDTH 602 0
DWIDTH 7 0
BBX 7 13 0 -2
BITMAP
00
00
00
00
00
00
00
00
00
00
00
08
30
ENDCHAR

STARTCHAR onesuperior
ENCODING 185
SWIDTH 602 0
DWIDTH 7 0
BBX 7 13 0 -2
BITMAP
00
00
70
30
30
30
30
30
00
00
00
00
00
ENDCHAR

STARTCHAR ordmasculine
ENCODING 186
SWIDTH 602 0
DWIDTH 7 0
BBX 7 13 0 -2
BITMAP
00
00
38
6C
6C
6C
6C
38
00
00
00
00
00
ENDCHAR

STARTCHAR guillemotright
ENCODING 187
SWIDTH 602 0
DWIDTH 7 0
BBX 7 13 0 -2
BITMAP
00
00
00
00
00
D8
6C
36
6C
D8
00
00
00
ENDCHAR

STARTCHAR onequarter
ENCODING 188
SWIDTH 602 0
DWIDTH 7 0
BBX 7 13 0 -2
BITMAP
00
E0
60
62
6C
10
6C
9C
2C
3E
0C
00
00
ENDCHAR

STARTCHAR onehalf
ENCODING 189
SWIDTH 602 0
DWIDTH 7 0
BBX 7 13 0 -2
BITMAP
00
E0
60
62
6C
10
6C
96
06
0C
1E
00
00
ENDCHAR

STARTCHAR threequarters
ENCODING 190
SWIDTH 602 0
DWIDTH 7 0
BBX 7 13 0 -2
BITMAP
00
E0
60
C4
68
F0
2C
5C
AC
3E
0C
00
00
ENDCHAR

STARTCHAR questiondown
ENCODING 191
SWIDTH 602 0
DWIDTH 7 0
BBX 7 13 0 -2
BITMAP
00
00
00
00
18
18
00
18
18
30
60
64
38
ENDCHAR

STARTCHAR Agrave
ENCODING 192
SWIDTH 602 0
DWIDTH 7 0
BBX 7 13 0 -2
BITMAP
30
18
00
18
2C
2C
2C
7E
46
46
46
00
00
ENDCHAR

STARTCHAR Aacute
ENCODING 193
SWIDTH 602 0
DWIDTH 7 0
BBX 7 13 0 -2
BITMAP
0C
18
00
18
2C
2C
2C
7E
46
46
46
00
00
ENDCHAR

STARTCHAR Acircumflex
ENCODING 194
SWIDTH 602 0
DWIDTH 7 0
BBX 7 13 0 -2
BITMAP
18
2C
00
18
2C
2C
2C
7E
46
46
46
00
00
ENDCHAR

STARTCHAR Atilde
ENCODING 195
SWIDTH 602 0
DWIDTH 7 0
BBX 7 13 0 -2
BITMAP
34
58
00
18
2C
2C
2C
7E
46
46
46
00
00
ENDCHAR

STARTCHAR Adieresis
ENCODING 196
SWIDTH 602 0
DWIDTH 7 0
BBX 7 13 0 -2
BITMAP
24
24
00
18
2C
2C
2C
7E
46
46
46
00
00
ENDCHAR

STARTCHAR Aring
ENCODING 197
SWIDTH 602 0
DWIDTH 7 0
BBX 7 13 0 -2
BITMAP
18
2C
18
18
2C
2C
2C
7E
46
46
46
00
00
ENDCHAR

STARTCHAR AE
ENCODING 198
SWIDTH 602 0
DWIDTH 7 0
BBX 7 13 0 -2
BITMAP
00
00
3E
38
58
58
5E
98
F8
98
9E
00
00
ENDCHAR

STARTCHAR Ccedilla
ENCODING 199
SWIDTH 602 0
DWIDTH 7 0
BBX 7 13 0 -2
BITMAP
00
00
1C
36
60
60
60
60
60
32
1C
08
30
ENDCHAR

STARTCHAR Egrave
ENCODING 200
SWIDTH 602 0
DWIDTH 7 0
BBX 7 13 0 -2
BITMAP
18
0C
00
3E
30
30
3C
30
30
30
3E
00
00
ENDCHAR

STARTCHAR Eacute
ENCODING 201
SWIDTH 602 0
DWIDTH 7 0
BBX 7 13 0 -2
BITMAP
0C
18
00
3E
30
30
3C
30
30
30
3E
00
00
ENDCHAR

STARTCHAR Ecircumflex
ENCODING 202
SWIDTH 602 0
DWIDTH 7 0
BBX 7 13 0 -2
BITMAP
0C
16
00
3E
30
30
3C
30
30
30
3E
00
00
ENDCHAR

STARTCHAR Edieresis
ENCODING 203
SWIDTH 602 0
DWIDTH 7 0
BBX 7 13 0 -2
BITMAP
12
12
00
3E
30
30
3C
30
30
30
3E
00
00
ENDCHAR

STARTCHAR Igrave
ENCODING 204
SWIDTH 602 0
DWIDTH 7 0
BBX 7 13 0 -2
BITMAP
30
18
00
7E
18
18
18
18
18
18
7E
00
00
ENDCHAR

STARTCHAR Iacute
ENCODING 205
SWIDTH 602 0
DWIDTH 7 0
BBX 7 13 0 -2
BITMAP
0C
18
00
7E
18
18
18
18
18
18
7E
00
00
ENDCHAR

STARTCHAR Icircumflex
ENCODING 206
SWIDTH 602 0
DWIDTH 7 0
BBX 7 13 0 -2
BITMAP
18
2C
00
7E
18
18
18
18
18
18
7E
00
00
ENDCHAR

STARTCHAR Idieresis
ENCODING 207
SWIDTH 602 0
DWIDTH 7 0
BBX 7 13 0 -2
BITMAP
24
24
00
7E
18
18
18
18
18
18
7E
00
00
ENDCHAR

STARTCHAR Eth
ENCODING 208
SWIDTH 602 0
DWIDTH 7 0
BBX 7 13 0 -2
BITMAP
00
00
78
6C
66
66
F6
66
66
6C
78
00
00
ENDCHAR

STARTCHAR Ntilde
ENCODING 209
SWIDTH 602 0
DWIDTH 7 0
BBX 7 13 0 -2
BITMAP
1A
2C
00
62
72
72
5A
5E
4E
46
46
00
00
ENDCHAR

STARTCHAR Ograve
ENCODING 210
SWIDTH 602 0
DWIDTH 7 0
BBX 7 13 0 -2
BITMAP
30
18
00
3C
24
66
66
66
66
24
3C
00
00
ENDCHAR

STARTCHAR Oacute
ENCODING 211
SWIDTH 602 0
DWIDTH 7 0
BBX 7 13 0 -2
BITMAP
0C
18
00
3C
24
66
66
66
66
24
3C
00
00
ENDCHAR

STARTCHAR Ocircumflex
ENCODING 212
SWIDTH 602 0
DWIDTH 7 0
BBX 7 13 0 -2
BITMAP
18
2C
00
3C
24
66
66
66
66
24
3C
00
00
ENDCHAR

STARTCHAR Otilde
ENCODING 213
SWIDTH 602 0
DWIDTH 7 0
BBX 7 13 0 -2
BITMAP
34
58
00
3C
24
66
66
66
66
24
3C
00
00
ENDCHAR

STARTCHAR Odieresis
ENCODING 214
SWIDTH 602 0
DWIDTH 7 0
BBX 7 13 0 -2
BITMAP
24
24
00
3C
24
66
66
66
66
24
3C
00
00
ENDCHAR

STARTCHAR multiply
ENCODING 215
SWIDTH 602 0
DWIDTH 7 0
BBX 7 13 0 -2
BITMAP
00
00
00
C2
64
38
18
2C
46
82
00
00
00
ENDCHAR

STARTCHAR Oslash
ENCODING 216
SWIDTH 602 0
DWIDTH 7 0
BBX 7 13 0 -2
BITMAP
00
02
3E
24
6E
6E
76
76
66
24
7C
40
00
ENDCHAR

STARTCHAR Ugrave
ENCODING 217
SWIDTH 602 0
DWIDTH 7 0
BBX 7 13 0 -2
BITMAP
30
18
00
62
62
62
62
62
62
34
18
00
00
ENDCHAR

STARTCHAR Uacute
ENCODING 218
SWIDTH 602 0
DWIDTH 7 0
BBX 7 13 0 -2
BITMAP
0C
18
00
62
62
62
62
62
62
34
18
00
00
ENDCHAR

STARTCHAR Ucircumflex
ENCODING 219
SWIDTH 602 0
DWIDTH 7 0
BBX 7 13 0 -2
BITMAP
18
2C
00
62
62
62
62
62
62
34
18
00
00
ENDCHAR

STARTCHAR Udieresis
ENCODING 220
SWIDTH 602 0
DWIDTH 7 0
BBX 7 13 0 -2
BITMAP
24
24
00
62
62
62
62
62
62
34
18
00
00
ENDCHAR

STARTCHAR Yacute
ENCODING 221
SWIDTH 602 0
DWIDTH 7 0
BBX 7 13 0 -2
BITMAP
0C
18
00
66
66
24
3C
18
18
18
18
00
00
ENDCHAR

STARTCHAR Thorn
ENCODING 222
SWIDTH 602 0
DWIDTH 7 0
BBX 7 13 0 -2
BITMAP
00
00
60
60
7C
66
66
66
7C
60
60
00
00
ENDCHAR

STARTCHAR germandbls
ENCODING 223
SWIDTH 602 0
DWIDTH 7 0
BBX 7 13 0 -2
BITMAP
00
38
6C
64
64
68
64
66
66
66
6C
00
00
ENDCHAR

STARTCHAR agrave
ENCODING 224
SWIDTH 602 0
DWIDTH 7 0
BBX 7 13 0 -2
BITMAP
00
30
18
00
3C
66
06
3E
66
66
3A
00
00
ENDCHAR

STARTCHAR aacute
ENCODING 225
SWIDTH 602 0
DWIDTH 7 0
BBX 7 13 0 -2
BITMAP
00
0C
18
00
3C
66
06
3E
66
66
3A
00
00
ENDCHAR

STARTCHAR acircumflex
ENCODING 226
SWIDTH 602 0
DWIDTH 7 0
BBX 7 13 0 -2
BITMAP
00
18
2C
00
3C
66
06
3E
66
66
3A
00
00
ENDCHAR

STARTCHAR atilde
ENCODING 227
SWIDTH 602 0
DWIDTH 7 0
BBX 7 13 0 -2
BITMAP
00
34
58
00
3C
66
06
3E
66
66
3A
00
00
ENDCHAR

STARTCHAR adieresis
ENCODING 228
SWIDTH 602 0
DWIDTH 7 0
BBX 7 13 0 -2
BITMAP
00
24
24
00
3C
66
06
3E
66
66
3A
00
00
ENDCHAR

STARTCHAR aring
ENCODING 229
SWIDTH 602 0
DWIDTH 7 0
BBX 7 13 0 -2
BITMAP
18
2C
18
00
3C
66
06
3E
66
66
3A
00
00
ENDCHAR

STARTCHAR ae
ENCODING 230
SWIDTH 602 0
DWIDTH 7 0
BBX 7 13 0 -2
BITMAP
00
00
00
00
6E
9A
1A
7E
D8
D8
6E
00
00
ENDCHAR

STARTCHAR ccedilla
ENCODING 231
SWIDTH 602 0
DWIDTH 7 0
BBX 7 13 0 -2
BITMAP
00
00
00
00
3C
66
60
60
60
62
3C
10
60
ENDCHAR

STARTCHAR egrave
ENCODING 232
SWIDTH 602 0
DWIDTH 7 0
BBX 7 13 0 -2
BITMAP
00
18
0C
00
3C
66
66
7E
60
62
3C
00
00
ENDCHAR

STARTCHAR eacute
ENCODING 233
SWIDTH 602 0
DWIDTH 7 0
BBX 7 13 0 -2
BITMAP
00
0C
18
00
3C
66
66
7E
60
62
3C
00
00
ENDCHAR

STARTCHAR ecircumflex
ENCODING 234
SWIDTH 602 0
DWIDTH 7 0
BBX 7 13 0 -2
BITMAP
00
18
2C
00
3C
66
66
7E
60
62
3C
00
00
ENDCHAR

STARTCHAR edieresis
ENCODING 235
SWIDTH 602 0
DWIDTH 7 0
BBX 7 13 0 -2
BITMAP
00
24
24
00
3C
66
66
7E
60
62
3C
00
00
ENDCHAR

STARTCHAR igrave
ENCODING 236
SWIDTH 602 0
DWIDTH 7 0
BBX 7 13 0 -2
BITMAP
00
30
18
00
78
18
18
18
18
18
18
00
00
ENDCHAR

STARTCHAR iacute
ENCODING 237
SWIDTH 602 0
DWIDTH 7 0
BBX 7 13 0 -2
BITMAP
00
0C
18
00
78
18
18
18
18
18
18
00
00
ENDCHAR

STARTCHAR icircumflex
ENCODING 238
SWIDTH 602 0
DWIDTH 7 0
BBX 7 13 0 -2
BITMAP
00
18
2C
00
78
18
18
18
18
18
18
00
00
ENDCHAR

STARTCHAR idieresis
ENCODING 239
SWIDTH 602 0
DWIDTH 7 0
BBX 7 13 0 -2
BITMAP
00
24
24
00
78
18
18
18
18
18
18
00
00
ENDCHAR

STARTCHAR eth
ENCODING 240
SWIDTH 602 0
DWIDTH 7 0
BBX 7 13 0 -2
BITMAP
00
18
0E
1C
06
3E
66
66
66
66
3C
00
00
ENDCHAR

STARTCHAR ntilde
ENCODING 241
SWIDTH 602 0
DWIDTH 7 0
BBX 7 13 0 -2
BITMAP
00
34
58
00
6C
76
66
66
66
66
66
00
00
ENDCHAR

STARTCHAR ograve
ENCODING 242
SWIDTH 602 0
DWIDTH 7 0
BBX 7 13 0 -2
BITMAP
00
30
18
00
3C
66
66
66
66
66
3C
00
00
ENDCHAR

STARTCHAR oacute
ENCODING 243
SWIDTH 602 0
DWIDTH 7 0
BBX 7 13 0 -2
BITMAP
00
0C
18
00
3C
66
66
66
66
66
3C
00
00
ENDCHAR

STARTCHAR ocircumflex
ENCODING 244
SWIDTH 602 0
DWIDTH 7 0
BBX 7 13 0 -2
BITMAP
00
18
2C
00
3C
66
66
66
66
66
3C
00
00
ENDCHAR

STARTCHAR otilde
ENCODING 245
SWIDTH 602 0
DWIDTH 7 0
BBX 7 13 0 -2
BITMAP
00
34
58
00
3C
66
66
66
66
66
3C
00
00
ENDCHAR

STARTCHAR odieresis
ENCODING 246
SWIDTH 602 0
DWIDTH 7 0
BBX 7 13 0 -2
BITMAP
00
24
24
00
3C
66
66
66
66
66
3C
00
00
ENDCHAR

STARTCHAR divide
ENCODING 247
SWIDTH 602 0
DWIDTH 7 0
BBX 7 13 0 -2
BITMAP
00
00
00
10
10
00
FE
00
10
10
00
00
00
ENDCHAR

STARTCHAR oslash
ENCODING 248
SWIDTH 602 0
DWIDTH 7 0
BBX 7 13 0 -2
BITMAP
00
00
00
02
3E
66
6E
76
66
66
7C
40
00
ENDCHAR

STARTCHAR ugrave
ENCODING 249
SWIDTH 602 0
DWIDTH 7 0
BBX 7 13 0 -2
BITMAP
00
30
18
00
66
66
66
66
66
6E
36
00
00
ENDCHAR

STARTCHAR uacute
ENCODING 250
SWIDTH 602 0
DWIDTH 7 0
BBX 7 13 0 -2
BITMAP
00
0C
18
00
66
66
66
66
66
6E
36
00
00
ENDCHAR

STARTCHAR ucircumflex
ENCODING 251
SWIDTH 602 0
DWIDTH 7 0
BBX 7 13 0 -2
BITMAP
00
18
2C
00
66
66
66
66
66
6E
36
00
00
ENDCHAR

STARTCHAR udieresis
ENCODING 252
SWIDTH 602 0
DWIDTH 7 0
BBX 7 13 0 -2
BITMAP
00
24
24
00
66
66
66
66
66
6E
36
00
00
ENDCHAR

STARTCHAR yacute
ENCODING 253
SWIDTH 602 0
DWIDTH 7 0
BBX 7 13 0 -2
BITMAP
00
0C
18
00
66
66
66
34
34
18
18
10
30
ENDCHAR

STARTCHAR thorn
ENCODING 254
SWIDTH 602 0
DWIDTH 7 0
BBX 7 13 0 -2
BITMAP
00
00
60
60
6C
76
66
66
66
66
7C
60
60
ENDCHAR

STARTCHAR ydieresis
ENCODING 255
SWIDTH 602 0
DWIDTH 7 0
BBX 7 13 0 -2
BITMAP
00
24
24
00
66
66
66
34
34
18
18
10
30
ENDCHAR
ENDFONT
